<?xml version="1.0" encoding="utf-8"?>
<!-- Generator: Adobe Illustrator 25.2.1, SVG Export Plug-In . SVG Version: 6.00 Build 0)  -->
<svg version="1.1" id="Layer_1" xmlns="http://www.w3.org/2000/svg" xmlns:xlink="http://www.w3.org/1999/xlink" x="0px" y="0px"
	 viewBox="0 0 300 300" style="enable-background:new 0 0 300 300;" xml:space="preserve">
<style type="text/css">
	.st0{fill:#181830;}
</style>
<g transform="translate(0.000000,300.000000) scale(0.100000,-0.100000)">
	<path class="st0" d="M0,1500V0h1500h1500v1500v1500H1500H0V1500z M1313,2013c6-9,45-157,128-482c66-259,68-266,73-260
		c2,2,41,164,86,359s87,363,92,373c8,16,26,17,200,15c137-2,192-6,195-15c3-8-11-13-39-15l-43-3l-3-487l-2-487l42-3c30-2,43-7,43-18
		c0-13-32-15-225-15s-225,2-225,15c0,10,12,16,38,18l37,3v423c0,233,3,439,6,457c4,22,3,30-3,24c-5-5-55-210-112-455
		c-56-245-106-455-111-467c-9-21-16-23-94-23c-71,0-87,3-94,18c-5,9-65,223-133,474c-68,252-126,458-129,458s-4-204-2-454l2-455
		l38-3c25-2,37-8,37-18c0-12-18-15-100-15s-100,3-100,15c0,11,13,16,43,18l42,3l-2,487l-3,487l-42,3c-32,2-41,7-36,18
		c4,11,39,14,198,14C1222,2020,1311,2017,1313,2013z"/>
</g>
</svg>
